# xmcd
#
# Track frame offsets: 
#        150
#        11812
#        24617
#        40305
#        53040
#        65810
#        79760
#        91330
#        103495
#        122695
#        135202
#        145735
#        156692
#        169170
#        181587
#        197912
#        212425
#        228560
#
# Disc length: 3340 seconds
#
# Revision: 1
# Processed by: cddbd v1.4PL0 Copyright (c) Steve Scherf et al.
# Submitted via: ExactAudioCopy v0.90b3
#
DISCID=fd0d0a12
DTITLE=Bill Anderson - Whispering Bill Anderson's Greatest Hits
DYEAR=1900
DGENRE=Country
TTITLE0=The Tip Of My Fingers
TTITLE1=Po' Folks
TTITLE2=Mama Sang A Song
TTITLE3=Still
TTITLE4=8 X 10
TTITLE5=Five Little Fingers
TTITLE6=Three A.M.
TTITLE7=Bright Lights And Country Music
TTITLE8=Golden Guitar
TTITLE9=I Love You Drops
TTITLE10=I Get The Fever
TTITLE11=Wild Weekend
TTITLE12=My Life (Throw It Away If I Want To)
TTITLE13=But You Know I Love You
TTITLE14=The Corner Of My Life
TTITLE15=Peanuts And Diamonds
TTITLE16=I Can't Wait Any Longer
TTITLE17=Double S
EXTD=
EXTT0=
EXTT1=
EXTT2=
EXTT3=
EXTT4=
EXTT5=
EXTT6=
EXTT7=
EXTT8=
EXTT9=
EXTT10=
EXTT11=
EXTT12=
EXTT13=
EXTT14=
EXTT15=
EXTT16=
EXTT17=
PLAYORDER=
